<?xml version="1.0" encoding="UTF-8"?>
<svg id="Layer_1" xmlns="http://www.w3.org/2000/svg" version="1.1" viewBox="0 0 160 160">
  <!-- Generator: Adobe Illustrator 29.8.1, SVG Export Plug-In . SVG Version: 2.1.1 Build 2)  -->
  <defs>
    <style>
      .st0 {
        fill: #74bffb;
      }
    </style>
  </defs>
  <path class="st0" d="M84.8,21.8c1.3-3.7,9.7-5.9,15.4-6.7,14.5-1.9,28.1,11.3,30,25.1,2.5,18-9.5,23.3-12.9,39-3.4,15.3-2.6,36.2-8.3,50.6s-9.2,6.1-12.9,1.3c-5-9.8-4.8-26.8-9.5-36-3.7-7.1-13.5-7.5-16.9-.2-4.6,9.8-4.6,26.4-9.4,36.1-6.7,9.6-13-.7-15-9.4-4.4-18.1-2.9-39.6-11.6-55.6-2.6-4.9-5.9-7.7-7.3-13.6-4.9-20.8,14.5-44.8,36-35.3s23.9,16.4,26.8,16.6,4.4-2.7,3.9-4.7-10.2-3.7-8.1-7.2Z"/>
</svg>